
        <svg xmlns="http://www.w3.org/2000/svg" xmlns:xlink="http://www.w3.org/1999/xlink" version="1.1" width="3162.1621621621625" 
        height="985.1212136066175" viewBox="0 0 3162.1621621621625 985.1212136066175">
			
			<g transform="scale(8.108108108108109) translate(10, 10)">
				<defs id="SvgjsDefs10491"><linearGradient id="SvgjsLinearGradient10498"><stop id="SvgjsStop10499" stop-color="#ef4136" offset="0"></stop><stop id="SvgjsStop10500" stop-color="#fbb040" offset="1"></stop></linearGradient></defs><g id="SvgjsG10492" featureKey="symbolFeature-0" transform="matrix(1.1939261992344306,0,0,1.1939261992344306,-9.697044369526498,-8.947029544736388)" fill="url(#SvgjsLinearGradient10498)"><path xmlns="http://www.w3.org/2000/svg" fill-rule="evenodd" clip-rule="evenodd" d="M89.314,35.387L69.91,68.997l-0.016,0.026c-2.549,4.397-6.655,7.356-11.22,8.579  c-5.415,1.45-11.199,0.37-15.699-2.919l2.011-3.483c3.572,2.784,8.249,3.725,12.658,2.543c3.544-0.949,6.729-3.219,8.726-6.583  c0.051-0.107,0.11-0.211,0.181-0.311l19.345-33.505c0.019-0.039,0.04-0.077,0.062-0.115c1.991-3.449,2.389-7.405,1.426-11  c-0.949-3.544-3.218-6.729-6.581-8.726c-0.091-0.042-0.179-0.091-0.264-0.148c-3.424-1.938-7.337-2.319-10.894-1.366  c-3.593,0.963-6.82,3.287-8.813,6.739l-19.5,33.775c-2.22,3.844-2.522,8.514-0.888,12.625l-2.394,4.146  c-3.433-5.743-3.536-12.945-0.172-18.771l19.5-33.775c2.544-4.406,6.658-7.371,11.235-8.598c4.527-1.213,9.516-0.725,13.893,1.753  c0.107,0.052,0.21,0.113,0.306,0.182c4.316,2.555,7.223,6.62,8.431,11.132c1.213,4.527,0.725,9.515-1.752,13.891  C89.439,35.194,89.381,35.293,89.314,35.387z"></path><path xmlns="http://www.w3.org/2000/svg" fill-rule="evenodd" clip-rule="evenodd" d="M62.022,49.659L42.618,83.268l-0.003,0.007l0.003,0.002  c-5.056,8.757-16.323,11.815-25.112,6.852c-0.103-0.048-0.201-0.104-0.293-0.169c-8.7-5.125-11.687-16.419-6.626-25.184L30.086,31  c0.023-0.039,0.047-0.078,0.072-0.115c2.553-4.345,6.631-7.269,11.163-8.483c5.419-1.452,11.202-0.373,15.704,2.922l-2.012,3.483  c-3.568-2.783-8.256-3.726-12.66-2.546c-3.563,0.955-6.764,3.243-8.757,6.636c-0.017,0.035-0.036,0.069-0.056,0.103l-19.5,33.776  c-3.987,6.905-1.598,15.818,5.308,19.81l0.005,0.003c6.907,3.987,15.823,1.598,19.813-5.313l0.003,0.002l19.435-33.663  c0.02-0.039,0.04-0.077,0.062-0.115c2.219-3.843,2.521-8.51,0.89-12.62l2.394-4.146c3.4,5.694,3.533,12.824,0.25,18.626  C62.147,49.465,62.09,49.565,62.022,49.659z"></path></g><g id="SvgjsG10493" featureKey="nameFeature-0" transform="matrix(1.5700881344211637,0,0,1.5700881344211637,115.00146749551489,-12.700881344211638)" fill="#ffffff"><path d="M3.1836 40 l0 -30 l4.5313 0 l0 30 l-4.5313 0 z M30.32025 20.352 l4.668 0 l-11.758 28.887 l-4.5898 0 l4.2188 -9.8828 l-7.8711 -19.004 l4.9414 0 l5.0977 14.063 z M52.730656249999996 19.98 c4.3945 0 7.0703 2.4219 7.0703 6.7969 l0 13.223 l-4.5313 0 l0 -12.246 c0 -2.9688 -1.7969 -4.1016 -3.8672 -4.1016 c-2.4805 0 -4.6094 1.4063 -4.6289 5.0586 l0 11.289 l-4.4922 0 l0 -19.648 l4.4922 0 l0 2.3242 c1.3086 -1.6992 3.3984 -2.6953 5.957 -2.6953 z M82.2895625 40 l-6.8555 -8.6523 l-1.3672 0 l0 8.6523 l-4.5313 0 l0 -30 l4.5313 0 l0 18.105 l1.25 0 l6.5039 -7.7539 l5.1758 0 l-7.832 9.0625 l8.7109 10.586 l-5.5859 0 z M101.5351625 40.37109 c-4.2773 0 -7.5391 -1.8164 -8.2031 -5.4492 l3.8086 -1.0742 c0.52734 2.2266 2.1875 3.3008 4.3945 3.3008 c1.6211 0 3.3789 -0.58594 3.3398 -2.4805 c-0.039063 -2.2266 -2.8906 -2.5 -6.0352 -3.5547 c-2.5391 -0.82031 -5 -1.9727 -5 -5.3906 c0 -3.9453 3.2617 -5.7227 7.3242 -5.7227 c3.7109 0 6.7969 1.5039 7.4805 5.1563 l-3.5547 0.83984 c-0.52734 -2.0703 -2.0898 -2.8906 -3.9063 -2.8906 c-1.6211 0 -3.2031 0.625 -3.2031 2.2461 c0 1.875 2.3047 2.2656 4.8047 2.9297 c3.0664 0.80078 6.4258 1.9727 6.4258 6.1328 c0 4.3555 -3.6328 5.957 -7.6758 5.957 z M130.27365625 20.352 l4.4922 0 l0 19.648 l-4.2773 0 l-0.11719 -2.4609 c-1.3086 1.7969 -3.4375 2.832 -6.0547 2.832 c-4.375 0 -7.0703 -2.4023 -7.0703 -6.7969 l0 -13.223 l4.5313 0 l0 12.246 c0 2.9688 1.7969 4.1016 3.8867 4.1016 c2.4805 0 4.5898 -1.4063 4.6094 -5.0586 l0 -11.289 z M155.34003125 19.98 c4.3945 0 7.0703 2.4219 7.0703 6.7969 l0 13.223 l-4.5313 0 l0 -12.246 c0 -2.9688 -1.7969 -4.1016 -3.8672 -4.1016 c-2.4805 0 -4.6094 1.4063 -4.6289 5.0586 l0 11.289 l-4.4922 0 l0 -19.648 l4.4922 0 l0 2.3242 c1.3086 -1.6992 3.3984 -2.6953 5.957 -2.6953 z"></path></g><g id="SvgjsG10494" featureKey="sloganFeature-0" transform="matrix(0.926706529451807,0,0,0.926706529451807,119.3574217794417,79.72402788504857)" fill="#ffffff"><path d="M6.5137 20.19531 c-3.0273 0 -5.3906 -1.4551 -5.8203 -4.1016 l3.0273 -0.69336 c0.19531 1.582 1.3574 2.4023 2.9102 2.4023 c1.1914 0 2.1387 -0.52734 2.1289 -1.7188 c-0.0097656 -1.3281 -1.5723 -1.748 -3.291 -2.2754 c-2.0703 -0.64453 -4.2871 -1.4063 -4.2871 -4.0039 c0 -2.627 2.1484 -4.1113 4.9805 -4.1113 c2.4805 0 4.9805 1.0059 5.5469 3.7109 l-2.832 0.70313 c-0.26367 -1.4063 -1.2109 -2.0215 -2.5391 -2.0215 c-1.1816 0 -2.1875 0.48828 -2.1875 1.6504 c0 1.084 1.3867 1.4453 2.9883 1.9238 c2.1289 0.64453 4.6484 1.4648 4.6484 4.2773 c0 2.998 -2.5098 4.2578 -5.2734 4.2578 z M34.45102734375 5.888999999999999 l2.9297 0 l0 14.111 l-2.9297 0 l0 -5.8008 l-5.9668 0 l0 5.8008 l-2.9297 0 l0 -14.111 l2.9297 0 l0 5.7617 l5.9668 0 l0 -5.7617 z M58.3447546875 20.19531 c-4.1504 0 -7.2168 -2.832 -7.2168 -7.2559 c0 -4.4336 3.0664 -7.2461 7.2168 -7.2461 c4.1406 0 7.207 2.8125 7.207 7.2461 c0 4.4238 -3.0664 7.2559 -7.207 7.2559 z M58.3447546875 17.5098 c2.4316 0 4.2969 -1.709 4.2969 -4.5703 c0 -2.8516 -1.8652 -4.5508 -4.2969 -4.5508 s-4.2969 1.6992 -4.2969 4.5508 c0 2.8613 1.8652 4.5703 4.2969 4.5703 z M86.76021015625 20 l-3.6719 -6.2109 l-0.84961 0 l0 6.2109 l-2.9297 0 l0 -14.111 l5.1172 0 c3.1934 0 4.541 1.8848 4.541 4.2188 c0 1.8945 -1.0742 3.125 -2.9883 3.5352 l4.248 6.3574 l-3.4668 0 z M82.23881015625 8.32 l0 3.3691 l1.7285 0 c1.5625 0 2.1973 -0.66406 2.1973 -1.6797 c0 -1.0059 -0.63477 -1.6895 -2.1973 -1.6895 l-1.7285 0 z M111.621328125 5.888999999999999 l0 2.5781 l-3.3496 0 l0 11.533 l-2.9004 0 l0 -11.533 l-3.3691 0 l0 -2.5781 l9.6191 0 z M133.08373046875 8.467 l-5.2344 0 l0 3.2031 l4.6387 0 l0 2.5488 l-4.6387 0 l0 3.1934 l5.2344 0 l0 2.5879 l-8.1836 0 l0 -14.111 l8.1836 0 l0 2.5781 z M156.8019140625 5.888999999999999 l2.9199 0 l0 14.111 l-3.3887 0 l-6.25 -10.088 l0 10.088 l-2.9199 0 l0 -14.111 l3.3496 0 l6.2891 10.029 l0 -10.029 z M190.6933875 20 l0 -14.111 l2.9297 0 l0 14.111 l-2.9297 0 z M216.51146484375 5.888999999999999 l0 2.5781 l-3.3496 0 l0 11.533 l-2.9004 0 l0 -11.533 l-3.3691 0 l0 -2.5781 l9.6191 0 z"></path></g>
			</g>
		</svg>
	